<?xml version="1.0" encoding="UTF-8"?><svg id="Capa_1" xmlns="http://www.w3.org/2000/svg" width="59.06cm" height="84.65cm" viewBox="0 0 1674.07 2399.58"><path d="M1090.16,38.83C1010.6,13.73,925.36,0,837.27,0,580.12,0,349.97,116.02,196.06,298.82l395.43,332.45L1090.16,38.83Z" fill="#1a73e8"/><path d="M196.06,298.82C69.28,449.4-.17,639.96,0,836.8,0,994.03,31.26,1121.89,82.88,1236.02l508.62-604.75L196.06,298.82Z" fill="#ea4335"/><path d="M837.27,517.14c176.91.16,320.19,143.71,320.03,320.62-.07,75.59-26.87,148.73-75.67,206.47l498.2-592.44c-102.26-197.02-278.56-345.38-490.15-412.48l-497.72,592.44c60.71-72.71,150.59-114.7,245.31-114.6" fill="#4285f4"/><path d="M837.27,1157.41c-176.64,0-320.13-143.49-320.13-320.13-.21-75.21,26.31-148.05,74.82-205.53L82.88,1236.49c87.14,192.74,231.58,347.6,380.28,542.71l618.48-734.98c-60.82,71.86-150.22,113.27-244.36,113.18" fill="#fbbc04"/><path d="M1069.32,1979.53c279.41-436.63,604.75-635.06,604.75-1142.73,0-139.23-34.1-270.41-94.24-385.96L463.63,1779.21c47.36,62.04,95.19,127.86,141.6,200.79,169.54,262.36,122.65,419.58,232.05,419.58s62.51-157.7,232.05-420.06" fill="#34a853"/></svg>